<svg id="Layer_1" data-name="Layer 1" xmlns="http://www.w3.org/2000/svg" xmlns:xlink="http://www.w3.org/1999/xlink" width="10.14975in" height="2.44734in" viewBox="0 0 730.78229 176.20875">
  <defs>
    <radialGradient id="radial-gradient" cx="8360.40694" cy="-13439.60908" r="84.10605" gradientTransform="matrix(0.21268, 0.35535, -0.37247, 0.30079, -6698.30484, 1153.73877)" gradientUnits="userSpaceOnUse">
      <stop offset="0.55779" stop-color="#ee2c70"/>
      <stop offset="0.63161" stop-color="#eb2c70"/>
      <stop offset="0.68504" stop-color="#e22c72"/>
      <stop offset="0.73207" stop-color="#d22c74"/>
      <stop offset="0.77539" stop-color="#bc2d77"/>
      <stop offset="0.81616" stop-color="#9f2d7b"/>
      <stop offset="0.85506" stop-color="#7b2e80"/>
      <stop offset="0.89176" stop-color="#522f85"/>
      <stop offset="0.9028" stop-color="#442f87"/>
    </radialGradient>
    <radialGradient id="radial-gradient-2" cx="7297.098" cy="-9282.76248" r="84.13485" gradientTransform="matrix(0.33323, 0.3543, -0.37137, 0.42107, -5793.28023, 1405.12431)" xlink:href="#radial-gradient"/>
    <radialGradient id="radial-gradient-3" cx="5741.22023" cy="-5901.17349" r="84.56223" gradientTransform="matrix(0.47555, 0.32667, -0.34241, 0.55655, -4665.13156, 1490.27378)" xlink:href="#radial-gradient"/>
    <radialGradient id="radial-gradient-4" cx="3912.08375" cy="-3259.23415" r="84.66147" gradientTransform="matrix(0.63753, 0.26428, -0.27702, 0.70305, -3311.31388, 1338.9222)" xlink:href="#radial-gradient"/>
    <radialGradient id="radial-gradient-5" cx="1983.23591" cy="-1291.88797" r="84.50924" gradientTransform="matrix(0.81475, 0.15837, -0.166, 0.85402, -1744.97051, 871.23091)" xlink:href="#radial-gradient"/>
    <radialGradient id="radial-gradient-6" cx="85.71839" cy="81.97087" r="83.86557" gradientTransform="matrix(1, 0, 0, 1, 0, 0)" xlink:href="#radial-gradient"/>
  </defs>
  <g>
    <path d="M47.25889,109.84763c3.54524-11.07036,5.85927-18.1912,8.88166-28.69543,1.29537-4.502,2.36951-9.629,6.56947-12.21676C74.25573,61.82162,87.4304,58.44132,99.76175,53.18483c7.63153-3.25309,14.12693-7.10629,21.47257-4.529,8.44193,2.96191-5.521,26.25124-7.01621,34.53476-1.21017,6.7044-5.26125,14.45579-12.096,16.1894C92.641,101.78485,45.85212,127.65635,47.25889,109.84763Zm1.01524.52436c-.51989,17.01692,46.9966-13.04928,55.05451-16.388,7.47747-3.09821,8.261-14.22881,10.54845-20.67244,1.773-4.99454,13.33266-22.49909,5.21745-23.58241C112.30912,48.82334,106.95291,51.473,99.38,54.6557,88.29127,59.316,77.9032,65.57874,66.74771,70.09736a8.88937,8.88937,0,0,0-4.81136,4.209C57.52182,85.05094,48.27413,103.98668,48.27413,110.372Z" style="fill: url(#radial-gradient)"/>
    <path d="M47.17321,118.62885c-.33027-11.33943-4.94178-42.96455,3.87138-47.02718,17.1561-7.90849,28.1187-13.49088,41.85932-21.35548,9.205-5.26857,18.34257-10.33278,24.17742-10.33278,14.06542,0,6.95489,21.48148,6.95489,29.84249,0,7.36845,2.62307,18.15741-4.81627,23.5874-8.05451,5.879-17.11107,10.203-27.82414,14.56914C82.13206,111.68788,49.70532,133.271,47.17321,118.62885Zm.99083,0c0,17.99633,54.39793-23.77758,65.98907-27.84517,7.55206-2.65018,5.76492-15.18489,5.76492-20.92689,0-7.5948,7.40181-30.27365-2.8234-28.68787-8.67425,1.34526-15.44152,5.80026-24.00907,10.70277C80.8123,59.455,69.04128,67.47247,55.80262,73.26614c-2.02391.88573-3.67529,1.76647-4.34765,4.06491C47.54769,90.68792,47.83376,104.427,48.164,118.62885Z" style="fill: url(#radial-gradient-2)"/>
    <path d="M50.69614,128.427c-4.51375-9.578-23.84335-57.17525-6.70875-58.76023C69.08544,65.36748,86.12471,41.611,108.43888,31.04413c16.45867-7.794,18.83774,24.01917,22.15879,35.32685.869,8.1272,6.30877,19.325.15741,26.802a7.4685,7.4685,0,0,1-4.547,2.5109c-8.39138,1.04332-19.71984,10.00892-28.50283,14.468C86.60488,115.78735,57.96218,142.6288,50.69614,128.427Zm.44037-.66054c9.24769,19.3761,53.18672-36.23334,75.178-39.12448,3.8677-.50847.13427-17.65965-.65328-22.08452-1.7449-9.80385-2.36486-37.14826-13.96844-33.95022C86.97029,39.42094,70.70665,68.53411,44.7943,74.83755c-5.32749,1.296-3.7147,6.62017-3.12993,10.22336C44.15354,100.39836,44.79926,113.35187,51.13651,127.76645Z" style="fill: url(#radial-gradient-3)"/>
    <path d="M60.98458,139.831c-11.06587-6.50707-52.09914-67.14424-28.7808-71.43151,29.3558-.8,42.39294-34.46322,65.9086-46.7453,14.78547-7.72236,33.98966,24.3449,39.20281,39.56867,3.10422,9.06513,12.45974,24.8012,5.45026,33.55545a6.49275,6.49275,0,0,1-4.62454,2.21126c-7.078-.04873-15.0552,3.58023-21.07265,8.8588-12.22845,9.78048-24.05775,20.70136-36.06751,30.903C73.04472,143.50953,69.7919,145.22547,60.98458,139.831ZM60.43,138.22649c6.81745,6.12077,13.62127,3.23451,19.10549-2.924,6.15719-6.91424,12.74217-13.47766,18.95117-20.33694,11.614-13.09736,21.19207-24.15873,38.6306-26.18089,5.61544-.65116-3.62744-21.23628-5.67178-26.64057-5.57058-13.31045-16.78611-44.68935-33.63012-36.32239C73.39149,37.95379,62.61964,70.3118,33.49589,74.1044c-9.39206,1.22307,1.24019,23.29605,3.5489,28.56118C43.59012,117.5925,48.57239,127.135,60.43,138.22649Z" style="fill: url(#radial-gradient-4)"/>
    <path d="M74.10814,148.83415c-23.11852-15.5256-47.362-30.80129-58.92164-57.99389-2.59369-6.10137-5.5548-14.09681-1.60867-20.19884a7.75007,7.75007,0,0,1,5.16044-3.63017c17.10414-2.00337,24.032-7.47032,35.46381-20.45971C60.49877,38.21667,66.707,29.81827,73.01334,21.49082c4.252-5.59147,8.62045-12.19044,16.67619-9.74867,26.97639,13.643,54.65082,32.471,65.37948,62.13969,2.70409,6.35765,5.77224,14.40254,1.79765,20.79207-5.11625,7.266-18.46619,3.44941-26.25866,12.07206-12.24019,10.47973-22.39465,25.21037-33.6003,37.1793C91.14466,152.03481,82.63914,156.08618,74.10814,148.83415Zm.42535-.42128c9.74057,5.99572,15.56424,2.16234,20.68576-6.25547,5.57951-9.17055,11.94332-17.80945,17.84119-26.77977,8.46686-14.14762,18.91662-23.64487,35.79761-25.1141,10.78972-.93909-8.02564-29.14187-11.91471-35.01219-15.07815-22.75959-26.48658-26.76715-41.98278-37.48579-4.87365-3.83849-11.59311-4.42134-15.28207.80028C60.67431,37.96612,50.73507,69.67857,20.77172,73.49669c-2.277.40213-4.53422,2.96711-3.603,5.566C28.23476,109.94607,46.64742,132.36864,74.53349,148.41287Z" style="fill: url(#radial-gradient-5)"/>
    <path d="M90.32865,160.4208c-27.07737-22.739-72.93033-28.16-86.90691-64.19044C.49441,88.684-3.00321,76.02727,4.50663,71.99862,43.23773,51.22135,38.89614,40.74455,60.42479,6.95543,64.71129-1.14,75.77432-2.11565,82.442,3.75112c9.07321,6.95151,19.3458,11.95648,29.49127,17.10778,22.75272,11.63472,49.4916,23.53007,57.367,50.03972,8.19519,25.00172-8.708,26.79227-24.86949,38.30565C128.92772,119.72407,113.66867,178.805,90.32865,160.4208Zm.534-.61711c25.46337,18.851,33.49936-54.83664,52.68505-63.06244,6.97659-4.78655,24.18641-6.57895,21.91072-17.95407-2.13869-10.69034-13.34518-25.22242-24.587-34.35776C122.11009,29.18346,98.621,21.94051,79.61476,7.21876c-5.30959-4.81459-13.08961-3.84756-16.56255,2.387C43.17539,39.51506,41.88882,58.73906,7.72632,78.03975,1.454,81.58339,7.22886,91.93986,10.36616,97.53486,25.94619,129.41711,64.416,139.14279,90.86269,159.80369Z" style="fill: url(#radial-gradient-6)"/>
  </g>
  <g>
    <path d="M301.47566,138.73a41.48789,41.48789,0,0,1-3.88285-5.40236L269.26032,85.94129l10.77481-11.19424a70.18023,70.18023,0,0,1,10.63581-8.61031,29.77536,29.77536,0,0,1,10.46688-4.38923V58.371q-2.02588.17048-5.40236.25338-3.3792.087-7.17487.16893-3.79839.087-7.17487.08407-3.88481,0-9.45414-.16853-5.5709-.1664-10.298-.33785v3.37648a17.248,17.248,0,0,1,9.53821,2.70118,7.85464,7.85464,0,0,1,3.62986,6.753q0,4.22166-5.73943,9.62267l-12.831,12.49316a11.31255,11.31255,0,0,1-4.81153,3.20717,27.928,27.928,0,0,1-5.31752,1.08329V13.46446a90.95535,90.95535,0,0,1-11.47963,1.7725q-6.24814.59376-13.16807.59123-5.0653,0-10.46689-.50676v3.54539q6.24347,0,8.52546,3.62986,2.27811,3.632,2.27849,11.22665v96.22826q0,7.09-2.44741,9.62306-2.44974,2.53148-8.35654,2.53226v3.545q3.37454-.16581,10.0442-.42192,6.66732-.25338,13.25292-.253,6.41394,0,12.57723.253,6.16056.2534,9.36929.42192v-3.545q-5.57089,0-7.84978-2.53226-2.27926-2.53266-2.27927-9.62306V100.98773a12.84643,12.84643,0,0,1,4.30477,1.02413,10.81253,10.81253,0,0,1,3.9677,4.13585l16.71308,30.219q1.51912,2.53264.33784,4.13585-1.18282,1.60669-4.55853,1.60436v3.545q3.03941-.16581,9.28521-.42192,6.24348-.25338,12.49317-.253,5.06413,0,10.129.253,5.06531.2534,7.59679.42192v-3.545A11.2891,11.2891,0,0,1,301.47566,138.73Z" style="fill: #091730"/>
    <path d="M391.28725,139.74279a6.48811,6.48811,0,0,1-3.20794.84461,2.9522,2.9522,0,0,1-2.87011-1.68844,13.8804,13.8804,0,0,1-.84382-5.74021V87.23943a71.66841,71.66841,0,0,0-1.18167-14.26528,18.548,18.548,0,0,0-5.06453-9.53821,22.37327,22.37327,0,0,0-10.46688-5.82466,56.48365,56.48365,0,0,0-14.01268-1.60359,64.91335,64.91335,0,0,0-14.43381,1.51913,41.53124,41.53124,0,0,0-11.39556,4.22069,27.20693,27.20693,0,0,0-6.837,6.07766,12.96886,12.96886,0,0,0-2.44819,8.10355,14.003,14.003,0,0,0,3.1231,9.20037q3.12231,3.79839,9.20114,3.79878a13.9938,13.9938,0,0,0,9.36929-3.37609,11.35945,11.35945,0,0,0,3.9677-9.11708,12.68707,12.68707,0,0,0-2.61711-7.84977,15.44459,15.44459,0,0,0-7.34379-5.149,12.32668,12.32668,0,0,1,5.57129-3.12348,25.42105,25.42105,0,0,1,6.75295-.92829,14.254,14.254,0,0,1,7.68086,1.857,11.14111,11.14111,0,0,1,4.38961,5.3179,20.36977,20.36977,0,0,1,1.43544,7.85017V87.57728a7.7706,7.7706,0,0,1-3.292,6.41511,32.21031,32.21031,0,0,1-8.61031,4.47369q-5.31751,1.943-11.14258,3.88285a63.03884,63.03884,0,0,0-11.05772,4.89638,26.27381,26.27381,0,0,0-8.52546,7.51193q-3.29163,4.55855-3.292,11.81748a21.29773,21.29773,0,0,0,5.06453,14.35052q5.06529,5.91067,16.376,5.90835a29.60152,29.60152,0,0,0,14.43459-3.37609,27.9624,27.9624,0,0,0,10.382-10.29875,15.69551,15.69551,0,0,0,3.46094,9.539q3.29163,4.13818,13.42106,4.13585A31.7036,31.7036,0,0,0,387.65739,145.23a24.97728,24.97728,0,0,0,8.18762-4.6426l-1.68765-2.87011A16.535,16.535,0,0,1,391.28725,139.74279Zm-31.23174-10.635a17.036,17.036,0,0,1-5.48721,5.40159,12.31763,12.31763,0,0,1-5.9932,1.51951,9.95692,9.95692,0,0,1-7.42786-3.1231q-3.03942-3.12114-3.039-10.382,0-6.75022,2.53226-10.80472a22.446,22.446,0,0,1,6.33105-6.66889q3.79839-2.61555,7.42786-4.8956a16.96613,16.96613,0,0,0,5.65613-5.65536Z" style="fill: #091730"/>
    <path d="M448.34759,93.99239q-5.23461-3.88129-10.045-7.34379a39.406,39.406,0,0,1-7.85056-7.25894,13.77158,13.77158,0,0,1-3.03824-8.86331q0-5.2311,3.37609-8.01908a12.56732,12.56732,0,0,1,8.27246-2.78565q7.09,0,11.56449,3.88286a24.87719,24.87719,0,0,1,6.837,9.9609,53.97235,53.97235,0,0,1,3.20794,12.32346h3.545q0-11.3076.16892-18.14813.16581-6.83723.506-11.5641h-3.545q-1.35332,8.95011-7.0908,5.06453a30.64046,30.64046,0,0,0-7.68085-3.46094,39.28718,39.28718,0,0,0-12.40832-1.77251,38.71259,38.71259,0,0,0-14.26567,2.61672,24.59349,24.59349,0,0,0-10.71987,7.85017,20.32907,20.32907,0,0,0-4.05178,12.83023,22.64783,22.64783,0,0,0,3.03825,11.7334,39.86957,39.86957,0,0,0,7.85055,9.45414q4.81075,4.30517,10.2139,8.69438a121.58818,121.58818,0,0,1,12.23939,10.63581,16.87057,16.87057,0,0,1,4.81153,12.32347q0,6.41861-3.71393,9.20114a13.22492,13.22492,0,0,1-8.10355,2.78526,17.42259,17.42259,0,0,1-11.73341-3.96693,26.67926,26.67926,0,0,1-7.34379-10.97365,64.63746,64.63746,0,0,1-3.71393-16.12224h-3.545q0,12.83139-.16892,20.59593-.17048,7.76726-.50676,13.16807h3.545a12.316,12.316,0,0,1,1.94142-4.72668,2.5753,2.5753,0,0,1,2.955-1.18167q1.68492.67606,3.62908,1.60358,1.93947.92946,4.13662,1.94143a31.04567,31.04567,0,0,0,6.837,2.53226,36.6317,36.6317,0,0,0,9.03222,1.01275,40.53239,40.53239,0,0,0,15.95333-3.03825,28.25938,28.25938,0,0,0,11.56448-8.69438,20.99648,20.99648,0,0,0,4.38962-13.25292q0-10.12944-5.82428-16.46009A100.93928,100.93928,0,0,0,448.34759,93.99239Z" style="fill: #091730"/>
    <path d="M539.34085,56.00769a29.80165,29.80165,0,0,0-17.135,4.98006,25.525,25.525,0,0,0-9.03223,11.07811V56.51407a91.02617,91.02617,0,0,1-11.47963,1.7725q-6.24815.59376-13.16807.59084-5.0653,0-10.46767-.50638v3.5454q6.07767,0,8.44139,3.62947,2.36217,3.63259,2.36334,11.22665v84.41078q0,6.75023-2.27927,9.11629-2.2781,2.36217-7.84977,2.36412v3.545q3.03823-.17048,9.03222-.42191,5.99009-.25338,12.23939-.25377,8.60914,0,16.29117.25377,7.67968.25338,12.07047.42191v-3.545q-7.09,0-11.14179-2.61711-4.05178-2.61906-4.05178-10.551V142.57991a20.24832,20.24832,0,0,0,5.23345,3.15608,30.53439,30.53439,0,0,0,11.9864,2.27927q11.98484,0,20.68078-5.65536,8.692-5.6538,13.59-16.79793,4.89483-11.14179,4.8956-27.51781,0-21.10191-8.69438-31.56958Q552.16874,56.00886,539.34085,56.00769Zm2.78525,67.78178q-1.94181,9.36929-6.33026,14.51866-4.39274,5.1517-11.9864,5.14937a14.83632,14.83632,0,0,1-7.17487-1.68843,11.90349,11.90349,0,0,1-3.46094-2.81615V77.90084a18.25083,18.25083,0,0,1,5.1486-9.90675,15.72029,15.72029,0,0,1,11.0585-4.72707,10.09806,10.09806,0,0,1,7.7657,3.545q3.20406,3.5456,5.06452,11.81787,1.85541,8.27286,1.85658,22.79035A111.83337,111.83337,0,0,1,542.1261,123.78947Z" style="fill: #091730"/>
    <path d="M604.61308,93.48563h47.33049q0-19.91792-8.44139-28.69948-8.44333-8.77554-23.29711-8.77846a43.60992,43.60992,0,0,0-21.35569,5.149A35.656,35.656,0,0,0,584.1618,76.77255q-5.31869,10.46922-5.3183,26.16721,0,15.364,4.98045,25.32339a33.64284,33.64284,0,0,0,13.75891,14.85651,40.89369,40.89369,0,0,0,20.25887,4.8956,32.00559,32.00559,0,0,0,16.20631-3.88285,35.19536,35.19536,0,0,0,11.14257-9.96013,43.94107,43.94107,0,0,0,6.41512-12.49316l-3.039-1.01275q-5.23461,8.44333-11.22664,10.97365a28.63073,28.63073,0,0,1-11.05772,2.53226,18.71039,18.71039,0,0,1-10.298-3.292q-5.06413-3.29278-8.35654-10.55173-3.29163-7.257-3.292-18.90828,0-2.36217.08407-4.55776C604.4645,95.69931,604.53213,94.57953,604.61308,93.48563ZM619.19232,59.5527q4.21758,0,6.753,4.2207A32.44465,32.44465,0,0,1,629.6592,75,82.28362,82.28362,0,0,1,630.672,90.27846H604.2424q.93552-16.15638,4.90494-23.29751Q613.282,59.55406,619.19232,59.5527Z" style="fill: #091730"/>
    <path d="M729.1787,64.11085a13.8187,13.8187,0,0,0-4.98045-5.82428,15.41168,15.41168,0,0,0-8.77845-2.27888,22.30772,22.30772,0,0,0-9.792,2.11035,25.18484,25.18484,0,0,0-7.76571,5.82428,30.82282,30.82282,0,0,0-5.40236,8.27208V56.51407a91.17128,91.17128,0,0,1-11.39557,1.7725q-6.16406.59376-13.25214.59084-5.06413,0-10.46688-.50638v3.5454q6.24347,0,8.52546,3.62947,2.27927,3.63259,2.27926,11.22665v53.179q0,7.09-2.44819,9.62306-2.44857,2.53148-8.35653,2.53226v3.545q3.545-.16581,10.46688-.42192,6.92071-.25338,13.67484-.253,8.10354,0,15.5314.253,7.4263.2534,11.31072.42192v-3.545q-7.93657,0-11.90155-2.87011-3.96887-2.86893-3.9677-10.97365V83.5255a23.46068,23.46068,0,0,1,2.02627-9.28522,25.8527,25.8527,0,0,1,5.48644-8.18761,13.94454,13.94454,0,0,1,7.85055-4.13624,7.57311,7.57311,0,0,1,4.72668-.16892,19.91778,19.91778,0,0,0-5.31751,5.3179,13.71192,13.71192,0,0,0-2.11035,7.85056,10.026,10.026,0,0,0,3.292,7.84978q3.29163,2.95533,9.20037,2.95417a12.31833,12.31833,0,0,0,9.539-3.96692,14.54336,14.54336,0,0,0,3.62909-10.2139A17.8459,17.8459,0,0,0,729.1787,64.11085Z" style="fill: #091730"/>
  </g>
</svg>
